<?xml version="1.0" encoding="UTF-8"?>
<svg version="1.1" xmlns="http://www.w3.org/2000/svg" width="350" height="270">
<path d="M0 0 C0.99 0.495 0.99 0.495 2 1 C2.09351838 17.6985785 2.16401584 34.3970718 2.20724869 51.09584904 C2.22785768 58.84971442 2.25594626 66.60341691 2.30175781 74.35717773 C2.34167677 81.11682939 2.36744491 87.87636306 2.37635398 94.63612932 C2.38156025 98.21410669 2.39376155 101.79174655 2.42292023 105.36961555 C2.45523835 109.3677366 2.45595619 113.36527409 2.45410156 117.36352539 C2.46848267 118.54460373 2.48286377 119.72568207 2.49768066 120.94255066 C2.45545001 129.35271657 0.88966689 133.32934206 -4.3125 139.9375 C-9.41025596 143.88499308 -16.98919369 142.70947222 -23 142 C-28.00365882 140.43998697 -31.60565721 136.90863715 -35 133 C-35 132.34 -35 131.68 -35 131 C-35.58644287 130.74025391 -36.17288574 130.48050781 -36.77709961 130.21289062 C-39.15332282 128.91634182 -40.68383382 127.5301986 -42.56640625 125.59375 C-43.5419043 124.60181641 -43.5419043 124.60181641 -44.53710938 123.58984375 C-45.20548828 122.90019531 -45.87386719 122.21054688 -46.5625 121.5 C-47.89483725 120.13317272 -49.22938615 118.7684969 -50.56640625 117.40625 C-51.15365479 116.80103516 -51.74090332 116.19582031 -52.34594727 115.57226562 C-54.11908186 113.79696517 -54.11908186 113.79696517 -57 112 C-57 111.34 -57 110.68 -57 110 C-57.66 110 -58.32 110 -59 110 C-59 109.34 -59 108.68 -59 108 C-59.66 108 -60.32 108 -61 108 C-62.62109375 106.35546875 -62.62109375 106.35546875 -64.4375 104.1875 C-66.97339332 101.17536735 -66.97339332 101.17536735 -69.72265625 98.36328125 C-71 97 -71 97 -71 95 C-71.9590625 94.5359375 -71.9590625 94.5359375 -72.9375 94.0625 C-75 93 -75 93 -76 92 C-75.97905273 92.96824707 -75.95810547 93.93649414 -75.93652344 94.93408203 C-75.86381488 98.54574645 -75.81808944 102.15734691 -75.78027344 105.76953125 C-75.76022778 107.32921244 -75.73298343 108.88881913 -75.69824219 110.44824219 C-75.64940874 112.69745314 -75.62696185 114.9456659 -75.609375 117.1953125 C-75.58872986 117.8861795 -75.56808472 118.57704651 -75.54681396 119.28884888 C-75.54450566 124.33319124 -76.88664906 127.09438337 -80 131 C-87.55661082 138.4389982 -95.45347835 142 -106 142 C-106.33 132.43 -106.66 122.86 -107 113 C-109.206875 113.639375 -111.41375 114.27875 -113.6875 114.9375 C-121.29484879 117.14149825 -127.79707176 118.19260047 -135.6875 118.1875 C-136.58509033 118.18886963 -137.48268066 118.19023926 -138.4074707 118.19165039 C-143.71866356 118.15255136 -148.5725836 117.73536751 -153.73388672 116.41333008 C-160.284808 115.21846801 -167.38559465 117.37020683 -173.6875 119.125 C-174.84282227 119.44343872 -174.84282227 119.44343872 -176.02148438 119.76831055 C-182.56851562 121.67470765 -188.39480427 124.39833704 -194.375 127.64453125 C-197 129 -197 129 -199 129 C-199 129.66 -199 130.32 -199 131 C-199.66 131 -200.32 131 -201 131 C-202.77951404 135.39644645 -203.73146592 138.4789501 -202 143 C-190.49259119 154.6722714 -163.73736909 153.23229384 -148.52355957 153.36491394 C-145.0364494 153.37972289 -141.54963597 153.37984051 -138.0625 153.375 C-136.2637442 153.37617828 -136.2637442 153.37617828 -134.4286499 153.37738037 C-118.07953065 153.36461929 -101.89110359 152.79958274 -85.625 151.125 C-84.77882111 151.03804871 -83.93264221 150.95109741 -83.06082153 150.86151123 C-80.67706008 150.60955252 -78.29532888 150.34479473 -75.9140625 150.0703125 C-75.2383168 149.99310974 -74.56257111 149.91590698 -73.86634827 149.83636475 C-70.38185292 149.40453453 -67.01626344 148.78247338 -63.61132812 147.94970703 C-58.81118827 146.84896089 -54.21415262 146.71129751 -49.3046875 146.734375 C-48.40245956 146.73169113 -47.50023163 146.72900726 -46.57066345 146.72624207 C-43.67195936 146.72233422 -40.77366285 146.73487613 -37.875 146.75 C-36.88712494 146.7521048 -35.89924988 146.75420959 -34.88143921 146.75637817 C-21.24104834 146.79060838 -7.81744452 147.22102982 5.74316406 148.76953125 C9.34294034 149.13714146 12.9486489 149.27808415 16.5625 149.4375 C39.70915948 150.56971983 39.70915948 150.56971983 50 154 C50 152.68 50 151.36 50 150 C54.56454251 150.54339792 57.9728176 151.79463821 62 154 C61.65514457 156.8842454 61.21744593 157.8207818 58.93359375 159.703125 C58.10988281 160.21359375 57.28617187 160.7240625 56.4375 161.25 C55.61121094 161.77078125 54.78492188 162.2915625 53.93359375 162.828125 C53.29550781 163.21484375 52.65742188 163.6015625 52 164 C51.34 163.67 50.68 163.34 50 163 C50 161.35 50 159.7 50 158 C48.82928955 157.88027832 47.6585791 157.76055664 46.45239258 157.63720703 C39.15225692 156.88329682 31.8555633 156.12897079 24.57603455 155.19413757 C4.18748492 152.58225355 -16.00600636 151.5921482 -36.5625 151.5625 C-37.72689606 151.55659851 -38.89129211 151.55069702 -40.0909729 151.5446167 C-56.55395496 151.47541716 -56.55395496 151.47541716 -72.71582031 154.21899414 C-84.91144551 157.11921753 -97.83398242 157.45786677 -110.3125 158.125 C-111.0757962 158.16669312 -111.83909241 158.20838623 -112.6255188 158.25134277 C-183.10236704 162.0614483 -183.10236704 162.0614483 -203.875 148.0625 C-206.60502434 145.41277049 -207.92928582 143.4496407 -208.1171875 139.59765625 C-207.60501448 134.23636123 -207.16808057 130.75127252 -203 127 C-193.12515353 118.94478816 -180.23584159 114.89997077 -168 112 C-168.73605469 111.55269531 -169.47210938 111.10539062 -170.23046875 110.64453125 C-175.34962009 107.47295664 -179.99129661 104.55042007 -184 100 C-184.62519531 99.34257812 -185.25039062 98.68515625 -185.89453125 98.0078125 C-196.09840947 87.06562027 -202.46664922 73.48326766 -202.14453125 58.28515625 C-201.25231815 44.17854379 -196.01464513 33.71787301 -187 23 C-186.56429687 22.39671875 -186.12859375 21.7934375 -185.6796875 21.171875 C-177.1398046 9.81945581 -160.70571224 3.35546808 -147.00390625 1.28125 C-128.21300198 -0.47810645 -110.67228798 3.04655786 -95 14 C-91.84567045 16.85391721 -90.75675983 18.84183537 -90.4375 23 C-90.60200465 26.47433825 -91.05674114 27.07167301 -93.375 30 C-96 32 -96 32 -98 32 C-98 32.66 -98 33.32 -98 34 C-101.57010771 36.90071251 -104.63692457 37.529739 -109.1015625 37.35546875 C-112.06690411 36.80022989 -113.73540827 34.94107863 -116 33 C-126.94938713 27.7007182 -138.72633926 25.99106356 -150.44140625 29.87109375 C-154.46013457 31.64424258 -158.03055507 34.00645051 -161.65234375 36.4765625 C-164 38 -164 38 -167 39 C-167.71247732 40.6476038 -168.37400383 42.31763529 -169 44 C-169.495 44.61875 -169.99 45.2375 -170.5 45.875 C-175.03436017 52.2986769 -174.69219359 60.46677627 -174 68 C-172.22886105 76.24946597 -167.32555853 82.57141875 -161 88 C-149.77005164 94.94650507 -139.04566337 96.35935905 -126.11328125 94.609375 C-119.14969644 92.86006867 -113.28409613 88.77953834 -108 84 C-107.29554764 82.68623857 -106.6217142 81.35487773 -106 80 C-106.81154541 80.02094727 -107.62309082 80.04189453 -108.45922852 80.06347656 C-112.16019142 80.14697084 -115.86095566 80.19876755 -119.5625 80.25 C-120.83931641 80.28351563 -122.11613281 80.31703125 -123.43164062 80.3515625 C-135.54413911 80.47740664 -135.54413911 80.47740664 -141 76 C-143.80097018 72.08483174 -143.6515064 67.63293443 -143 63 C-140.77385782 58.54771564 -138.48981614 56.13266267 -134 54 C-130.94278131 53.0637741 -128.16611915 52.86373739 -124.9753418 52.83886719 C-123.97717941 52.82925964 -122.97901703 52.8196521 -121.9506073 52.80975342 C-120.87764908 52.80550354 -119.80469086 52.80125366 -118.69921875 52.796875 C-117.58948196 52.79117493 -116.47974518 52.78547485 -115.33638 52.77960205 C-112.98866731 52.77015929 -110.64094141 52.76362094 -108.29321289 52.75976562 C-104.71151468 52.75006504 -101.13039159 52.71903609 -97.54882812 52.6875 C-95.2656284 52.6809691 -92.98242458 52.67571897 -90.69921875 52.671875 C-89.63233322 52.6595282 -88.56544769 52.6471814 -87.4662323 52.63446045 C-80.18007388 52.65616159 -75.01928389 53.27852104 -69.42578125 58.3203125 C-68.62527344 59.20460937 -67.82476562 60.08890625 -67 61 C-66.06096122 61.96061443 -65.11673825 62.91618259 -64.16796875 63.8671875 C-63.67876953 64.36089844 -63.18957031 64.85460937 -62.68554688 65.36328125 C-62.19119141 65.86214844 -61.69683594 66.36101562 -61.1875 66.875 C-60.46336914 67.61169922 -60.46336914 67.61169922 -59.72460938 68.36328125 C-57.03902923 71.06641421 -54.29140033 73.63300511 -51.3918457 76.10595703 C-46.54000484 80.33221773 -42.02393838 84.86566977 -37.5 89.4375 C-36.67757812 90.26443359 -35.85515625 91.09136719 -35.0078125 91.94335938 C-33.00287887 93.95994959 -31.00033747 95.97885236 -29 98 C-29.00452431 96.92124352 -29.00452431 96.92124352 -29.00914001 95.82069397 C-29.0314785 89.00960622 -29.02001443 82.19930232 -28.97153378 75.38837528 C-28.94778055 71.88744302 -28.93663995 68.387458 -28.95532227 64.88647461 C-28.97627884 60.85194071 -28.94058201 56.81956676 -28.90234375 52.78515625 C-28.92372658 50.91900414 -28.92372658 50.91900414 -28.94554138 49.01515198 C-28.80426494 40.45867525 -26.86761134 36.14095303 -21 30 C-19.79883832 28.21017376 -18.62457619 26.40141157 -17.5 24.5625 C-5.76417286 5.76417286 -5.76417286 5.76417286 0 0 Z " fill="#282827" transform="translate(243,57)"/>
<path d="M0 0 C3.15432955 2.85391721 4.24324017 4.84183537 4.5625 9 C4.39799535 12.47433825 3.94325886 13.07167301 1.625 16 C-1 18 -1 18 -3 18 C-3 18.66 -3 19.32 -3 20 C-6.57010771 22.90071251 -9.63692457 23.529739 -14.1015625 23.35546875 C-17.06690411 22.80022989 -18.73540827 20.94107863 -21 19 C-31.94938713 13.7007182 -43.72633926 11.99106356 -55.44140625 15.87109375 C-59.46013457 17.64424258 -63.03055507 20.00645051 -66.65234375 22.4765625 C-69 24 -69 24 -72 25 C-72.71247732 26.6476038 -73.37400383 28.31763529 -74 30 C-74.495 30.61875 -74.99 31.2375 -75.5 31.875 C-80.03436017 38.2986769 -79.69219359 46.46677627 -79 54 C-77.22886105 62.24946597 -72.32555853 68.57141875 -66 74 C-54.77005164 80.94650507 -44.04566337 82.35935905 -31.11328125 80.609375 C-22.58121246 78.46605337 -15.21757225 72.95676299 -10 66 C-10 86.46 -10 106.92 -10 128 C-10.33 128 -10.66 128 -11 128 C-11.33 118.43 -11.66 108.86 -12 99 C-14.206875 99.639375 -16.41375 100.27875 -18.6875 100.9375 C-26.29484879 103.14149825 -32.79707176 104.19260047 -40.6875 104.1875 C-41.58509033 104.18886963 -42.48268066 104.19023926 -43.4074707 104.19165039 C-48.71866356 104.15255136 -53.5725836 103.73536751 -58.73388672 102.41333008 C-65.284808 101.21846801 -72.38559465 103.37020683 -78.6875 105.125 C-79.84282227 105.44343872 -79.84282227 105.44343872 -81.02148438 105.76831055 C-87.56851562 107.67470765 -93.39480427 110.39833704 -99.375 113.64453125 C-102 115 -102 115 -104 115 C-104 115.66 -104 116.32 -104 117 C-104.66 117 -105.32 117 -106 117 C-107.77951404 121.39644645 -108.73146592 124.4789501 -107 129 C-95.49259119 140.6722714 -68.73736909 139.23229384 -53.52355957 139.36491394 C-50.0364494 139.37972289 -46.54963597 139.37984051 -43.0625 139.375 C-41.2637442 139.37617828 -41.2637442 139.37617828 -39.4286499 139.37738037 C-23.07953065 139.36461929 -6.89110359 138.79958274 9.375 137.125 C10.22117889 137.03804871 11.06735779 136.95109741 11.93917847 136.86151123 C14.32293992 136.60955252 16.70467112 136.34479473 19.0859375 136.0703125 C19.7616832 135.99310974 20.43742889 135.91590698 21.13365173 135.83636475 C24.61814708 135.40453453 27.98373656 134.78247338 31.38867188 133.94970703 C36.18881173 132.84896089 40.78584738 132.71129751 45.6953125 132.734375 C46.59754044 132.73169113 47.49976837 132.72900726 48.42933655 132.72624207 C51.32804064 132.72233422 54.22633715 132.73487613 57.125 132.75 C58.11287506 132.7521048 59.10075012 132.75420959 60.11856079 132.75637817 C73.75895166 132.79060838 87.18255548 133.22102982 100.74316406 134.76953125 C104.34294034 135.13714146 107.9486489 135.27808415 111.5625 135.4375 C134.70915948 136.56971983 134.70915948 136.56971983 145 140 C145 138.68 145 137.36 145 136 C149.56454251 136.54339792 152.9728176 137.79463821 157 140 C156.65514457 142.8842454 156.21744593 143.8207818 153.93359375 145.703125 C153.10988281 146.21359375 152.28617187 146.7240625 151.4375 147.25 C150.61121094 147.77078125 149.78492188 148.2915625 148.93359375 148.828125 C148.29550781 149.21484375 147.65742188 149.6015625 147 150 C146.34 149.67 145.68 149.34 145 149 C145 147.35 145 145.7 145 144 C143.82928955 143.88027832 142.6585791 143.76055664 141.45239258 143.63720703 C134.15225692 142.88329682 126.8555633 142.12897079 119.57603455 141.19413757 C99.18748492 138.58225355 78.99399364 137.5921482 58.4375 137.5625 C57.27310394 137.55659851 56.10870789 137.55069702 54.9090271 137.5446167 C38.44604504 137.47541716 38.44604504 137.47541716 22.28417969 140.21899414 C10.08855449 143.11921753 -2.83398242 143.45786677 -15.3125 144.125 C-16.0757962 144.16669312 -16.83909241 144.20838623 -17.6255188 144.25134277 C-88.10236704 148.0614483 -88.10236704 148.0614483 -108.875 134.0625 C-111.60502434 131.41277049 -112.92928582 129.4496407 -113.1171875 125.59765625 C-112.60501448 120.23636123 -112.16808057 116.75127252 -108 113 C-98.12515353 104.94478816 -85.23584159 100.89997077 -73 98 C-73.73605469 97.55269531 -74.47210938 97.10539062 -75.23046875 96.64453125 C-80.34962009 93.47295664 -84.99129661 90.55042007 -89 86 C-89.62519531 85.34257812 -90.25039062 84.68515625 -90.89453125 84.0078125 C-101.09840947 73.06562027 -107.46664922 59.48326766 -107.14453125 44.28515625 C-106.25231815 30.17854379 -101.01464513 19.71787301 -92 9 C-91.56429687 8.39671875 -91.12859375 7.7934375 -90.6796875 7.171875 C-82.1398046 -4.18054419 -65.70571224 -10.64453192 -52.00390625 -12.71875 C-33.21300198 -14.47810645 -15.67228798 -10.95344214 0 0 Z " fill="#F06A41" transform="translate(148,71)"/>
<path d="M0 0 C5.75 1.875 5.75 1.875 8 3 C8 3.66 8 4.32 8 5 C8.66 5.33 9.32 5.66 10 6 C10.556875 6.33 11.11375 6.66 11.6875 7 C14.73738699 8.31887005 17.71471226 8.62092834 21 9 C20.67 10.65 20.34 12.3 20 14 C20.99 14.33 21.98 14.66 23 15 C23.495 16.485 23.495 16.485 24 18 C25.45880109 17.85892253 26.91703551 17.71197585 28.375 17.5625 C29.18710938 17.48128906 29.99921875 17.40007812 30.8359375 17.31640625 C33.04272805 17.10909886 33.04272805 17.10909886 35 16 C35.99 16.66 36.98 17.32 38 18 C37.505 19.485 37.505 19.485 37 21 C35.74574219 20.94714844 34.49148437 20.89429688 33.19921875 20.83984375 C27.4893085 20.84765484 22.3045126 22.09179336 16.8125 23.5625 C15.80743408 23.82627441 14.80236816 24.09004883 13.7668457 24.36181641 C6.484774 26.36755847 0.034599 29.00966859 -6.55078125 32.6796875 C-9 34 -9 34 -11 34 C-11 34.66 -11 35.32 -11 36 C-11.66 36 -12.32 36 -13 36 C-14.77951404 40.39644645 -15.73146592 43.4789501 -14 48 C-2.49259119 59.6722714 24.26263091 58.23229384 39.47644043 58.36491394 C42.9635506 58.37972289 46.45036403 58.37984051 49.9375 58.375 C51.7362558 58.37617828 51.7362558 58.37617828 53.5713501 58.37738037 C69.92046935 58.36461929 86.10889641 57.79958274 102.375 56.125 C103.64426834 55.99457306 103.64426834 55.99457306 104.93917847 55.86151123 C107.32293992 55.60955252 109.70467112 55.34479473 112.0859375 55.0703125 C112.7616832 54.99310974 113.43742889 54.91590698 114.13365173 54.83636475 C117.61814708 54.40453453 120.98373656 53.78247338 124.38867188 52.94970703 C129.18881173 51.84896089 133.78584738 51.71129751 138.6953125 51.734375 C139.59754044 51.73169113 140.49976837 51.72900726 141.42933655 51.72624207 C144.32804064 51.72233422 147.22633715 51.73487613 150.125 51.75 C151.60681259 51.7531572 151.60681259 51.7531572 153.11856079 51.75637817 C166.75895166 51.79060838 180.18255548 52.22102982 193.74316406 53.76953125 C197.34294034 54.13714146 200.9486489 54.27808415 204.5625 54.4375 C227.70915948 55.56971983 227.70915948 55.56971983 238 59 C238 57.68 238 56.36 238 55 C242.56454251 55.54339792 245.9728176 56.79463821 250 59 C249.65514457 61.8842454 249.21744593 62.8207818 246.93359375 64.703125 C246.10988281 65.21359375 245.28617187 65.7240625 244.4375 66.25 C243.61121094 66.77078125 242.78492188 67.2915625 241.93359375 67.828125 C241.29550781 68.21484375 240.65742188 68.6015625 240 69 C239.34 68.67 238.68 68.34 238 68 C238 66.35 238 64.7 238 63 C236.82928955 62.88027832 235.6585791 62.76055664 234.45239258 62.63720703 C227.15225692 61.88329682 219.8555633 61.12897079 212.57603455 60.19413757 C192.18748492 57.58225355 171.99399364 56.5921482 151.4375 56.5625 C150.27310394 56.55659851 149.10870789 56.55069702 147.9090271 56.5446167 C131.44604504 56.47541716 131.44604504 56.47541716 115.28417969 59.21899414 C103.08855449 62.11921753 90.16601758 62.45786677 77.6875 63.125 C76.54255569 63.18753967 76.54255569 63.18753967 75.3744812 63.25134277 C4.89763296 67.0614483 4.89763296 67.0614483 -15.875 53.0625 C-18.60502434 50.41277049 -19.92928582 48.4496407 -20.1171875 44.59765625 C-19.60501448 39.23636123 -19.16808057 35.75127252 -15 32 C-5.12515353 23.94478816 7.76415841 19.89997077 20 17 C19.26394531 16.55269531 18.52789062 16.10539062 17.76953125 15.64453125 C10.56049985 11.17816966 5.19641784 6.7360972 0 0 Z " fill="#E98A6A" transform="translate(55,152)"/>
<path d="M0 0 C3.27981751 2.06771104 4.84746007 3.77119011 7 7 C9.24209897 17.05268963 3.99637155 25.66952965 -1 34 C-1.97417707 35.02517269 -2.96849036 36.03253534 -4 37 C-16 17.6185567 -16 17.6185567 -16 11 C-13.43227552 2.72622111 -8.78785157 -1.7967065 0 0 Z M-8 9 C-8.41666667 12.5 -8.41666667 12.5 -8 16 C-7.34 16.66 -6.68 17.32 -6 18 C-3.44539786 18.07272562 -3.44539786 18.07272562 -1 17 C0.58612501 14.74303573 0.58612501 14.74303573 1 12 C0.51617907 9.69863938 0.51617907 9.69863938 -1 8 C-4.36689901 6.47946496 -4.77513513 6.85009009 -8 9 Z " fill="#EE734E" transform="translate(315,170)"/>
<path d="M0 0 C5.75 1.875 5.75 1.875 8 3 C8 3.66 8 4.32 8 5 C8.66 5.33 9.32 5.66 10 6 C10.556875 6.33 11.11375 6.66 11.6875 7 C14.73738699 8.31887005 17.71471226 8.62092834 21 9 C20.67 10.65 20.34 12.3 20 14 C20.99 14.33 21.98 14.66 23 15 C23.495 16.485 23.495 16.485 24 18 C25.45880109 17.85892253 26.91703551 17.71197585 28.375 17.5625 C29.18710938 17.48128906 29.99921875 17.40007812 30.8359375 17.31640625 C33.04272805 17.10909886 33.04272805 17.10909886 35 16 C35.99 16.66 36.98 17.32 38 18 C37.505 19.485 37.505 19.485 37 21 C35.74574219 20.94714844 34.49148437 20.89429688 33.19921875 20.83984375 C27.48920498 20.84765499 22.30466341 22.09212097 16.8125 23.5625 C15.30163818 23.95816162 15.30163818 23.95816162 13.76025391 24.36181641 C6.54569782 26.3456169 0.21353312 28.95180511 -6.2578125 32.6796875 C-9.12909982 34.06215917 -10.86087752 34.28746543 -14 34 C-12.47877726 29.74057632 -9.77196917 28.2999812 -6 26 C2.39958633 22.14429764 11.00572322 19.1316997 20 17 C19.26394531 16.55269531 18.52789062 16.10539062 17.76953125 15.64453125 C10.56049985 11.17816966 5.19641784 6.7360972 0 0 Z " fill="#E8815F" transform="translate(55,152)"/>
<path d="M0 0 C12.24551668 0.61227583 24.52356439 6.14036778 33.625 14.375 C35.51720536 17.98739204 35.95675094 21.01219777 35 25 C32.625 28 32.625 28 30 30 C29.34 30 28.68 30 28 30 C28 30.66 28 31.32 28 32 C26.02 32 24.04 32 22 32 C20.9375 30.125 20.9375 30.125 20 28 C20.33 27.34 20.66 26.68 21 26 C21.66 26 22.32 26 23 26 C23.12375 25.4225 23.2475 24.845 23.375 24.25 C24 22 24 22 25.0625 20.125 C26.28980643 17.34310544 26.13660754 15.00536594 26 12 C25.030625 11.54625 24.06125 11.0925 23.0625 10.625 C20 9 20 9 19 7 C16.98262924 6.3474925 16.98262924 6.3474925 14.625 5.9375 C11.97816849 5.41589314 9.5682375 4.85607917 7 4 C7 3.34 7 2.68 7 2 C4.69 2 2.38 2 0 2 C0 1.34 0 0.68 0 0 Z " fill="#EF693D" transform="translate(117,59)"/>
<path d="M0 0 C0.89436768 0.0098291 1.78873535 0.0196582 2.71020508 0.02978516 C11.46204543 0.18644712 20.20098764 0.66842043 28.9375 1.1875 C29.6334729 1.22652435 30.3294458 1.26554871 31.04650879 1.30575562 C33.03553457 1.42003741 35.02366741 1.54955009 37.01171875 1.6796875 C38.16631592 1.75300293 39.32091309 1.82631836 40.51049805 1.90185547 C43.25 2.3125 43.25 2.3125 45.25 4.3125 C44.92 4.9725 44.59 5.6325 44.25 6.3125 C35.76165229 6.63484232 27.49955371 5.92749868 19.06152344 5.09863281 C8.80799504 4.1196177 -1.45893729 3.68250898 -11.75 3.3125 C-8.39368909 -0.61422802 -4.86524431 -0.09993623 0 0 Z " fill="#DE7958" transform="translate(224.75,204.6875)"/>
<path d="M0 0 C2 4 2 4 2 8 C0.68 8.33 -0.64 8.66 -2 9 C-2 11.31 -2 13.62 -2 16 C-3.875 15.75 -3.875 15.75 -6 15 C-7.0625 13.125 -7.0625 13.125 -8 11 C-8.556875 10.525625 -9.11375 10.05125 -9.6875 9.5625 C-10.120625 9.046875 -10.55375 8.53125 -11 8 C-10.67 6.35 -10.34 4.7 -10 3 C-5.05 1.515 -5.05 1.515 0 0 Z " fill="#F0663C" transform="translate(315,187)"/>
<path d="M0 0 C1.32 0.33 2.64 0.66 4 1 C3.01 1 2.02 1 1 1 C1 2.65 1 4.3 1 6 C-6.31105595 7.82776399 -13.62905819 6.94532009 -21 6 C-22.16208984 5.85691406 -22.16208984 5.85691406 -23.34765625 5.7109375 C-25.23230746 5.47826451 -27.11623622 5.23975175 -29 5 C-25.54156115 1.81823626 -22.6347433 1.31997182 -18 1 C-15.40831778 1.20460649 -12.82225737 1.49794219 -10.25 1.875 C-8.95578125 2.05804688 -7.6615625 2.24109375 -6.328125 2.4296875 C-3 3 -3 3 0 4 C0 2.68 0 1.36 0 0 Z " fill="#EA9273" transform="translate(293,207)"/>
<path d="M0 0 C16.83 0 33.66 0 51 0 C51 0.33 51 0.66 51 1 C50.16227051 1.01981934 49.32454102 1.03963867 48.46142578 1.06005859 C45.35634166 1.13810612 42.25165461 1.22479635 39.14697266 1.31738281 C37.14113029 1.37454036 35.13501082 1.42168596 33.12890625 1.46875 C31.24365234 1.52675781 31.24365234 1.52675781 29.3203125 1.5859375 C28.15773926 1.6173584 26.99516602 1.6487793 25.79736328 1.68115234 C22.86343518 1.72157869 22.86343518 1.72157869 21 4 C14.27899886 4.32004767 7.68292443 3.69952106 1 3 C0.67 2.01 0.34 1.02 0 0 Z " fill="#ED9474" transform="translate(66,211)"/>
<path d="M0 0 C1.7421875 1.52734375 1.7421875 1.52734375 3 3 C2.33613281 2.96519531 1.67226563 2.93039063 0.98828125 2.89453125 C-2.91898968 2.7747463 -6.24919672 2.76537398 -10 3.9375 C-13.05969564 7.09281113 -13.40248371 10.74604075 -14 15 C-13.34 15 -12.68 15 -12 15 C-11.67 15.66 -11.34 16.32 -11 17 C-10.67 15.02 -10.34 13.04 -10 11 C-9.34 11 -8.68 11 -8 11 C-7.7525 11.94875 -7.505 12.8975 -7.25 13.875 C-6.3142923 17.08693191 -6.3142923 17.08693191 -3.875 18.375 C-2.946875 18.684375 -2.946875 18.684375 -2 19 C-5.96 19.495 -5.96 19.495 -10 20 C-10.33 20.99 -10.66 21.98 -11 23 C-14.81955988 19.66579856 -15.66182659 15.9571273 -16 11 C-14.87648844 6.96857618 -13.59387866 4.6617505 -10.8125 1.5625 C-6.8387229 -0.64515394 -4.51730697 -0.51001853 0 0 Z " fill="#E5957C" transform="translate(315,170)"/>
<path d="M0 0 C14.52 0 29.04 0 44 0 C44 0.33 44 0.66 44 1 C43.25234375 1.04898438 42.5046875 1.09796875 41.734375 1.1484375 C40.25710937 1.26058594 40.25710937 1.26058594 38.75 1.375 C37.77546875 1.44460937 36.8009375 1.51421875 35.796875 1.5859375 C33.06292607 1.82814421 33.06292607 1.82814421 31.12304688 3.01367188 C28.64322141 4.1657527 26.95729538 4.23022174 24.234375 4.1953125 C23.34492188 4.18886719 22.45546875 4.18242187 21.5390625 4.17578125 C20.61867187 4.15902344 19.69828125 4.14226562 18.75 4.125 C17.81414062 4.11597656 16.87828125 4.10695312 15.9140625 4.09765625 C13.60911343 4.07413636 11.3046884 4.04126853 9 4 C10.32 3.34 11.64 2.68 13 2 C8.71 1.67 4.42 1.34 0 1 C0 0.67 0 0.34 0 0 Z " fill="#E79679" transform="translate(184,204)"/>
<path d="M0 0 C3.63 0 7.26 0 11 0 C11 0.33 11 0.66 11 1 C-2.42033395 4.89398291 -17.16184664 7.45953834 -31 4 C-31 3.67 -31 3.34 -31 3 C-25.06 3.33 -19.12 3.66 -13 4 C-13 3.01 -13 2.02 -13 1 C-8.71 1.33 -4.42 1.66 0 2 C0 1.34 0 0.68 0 0 Z " fill="#E99175" transform="translate(123,170)"/>
<path d="M0 0 C2.98095703 -0.34057617 2.98095703 -0.34057617 6.7578125 -0.29296875 C7.42086395 -0.28872391 8.08391541 -0.28447906 8.76705933 -0.28010559 C10.88678441 -0.26329971 13.00556188 -0.22564701 15.125 -0.1875 C16.56118419 -0.17245549 17.99738328 -0.15876668 19.43359375 -0.14648438 C22.95603764 -0.1133909 26.47792636 -0.0615968 30 0 C26.42294197 2.38470535 24.4485583 2.38406058 20.1875 2.625 C19.53257568 2.66294678 18.87765137 2.70089355 18.20288086 2.73999023 C11.46926477 3.09557935 4.74161179 3.09348922 -2 3 C-1.34 2.01 -0.68 1.02 0 0 Z " fill="#E26C45" transform="translate(89,212)"/>
<path d="M0 0 C0.53625 0.2475 1.0725 0.495 1.625 0.75 C1.17125 1.141875 0.7175 1.53375 0.25 1.9375 C-1.65142919 4.05832487 -2.43704028 6.08042235 -3.375 8.75 C-4.035 8.75 -4.695 8.75 -5.375 8.75 C-5.313125 10.173125 -5.313125 10.173125 -5.25 11.625 C-5.375 14.75 -5.375 14.75 -7.375 16.75 C-7.375 15.43 -7.375 14.11 -7.375 12.75 C-8.035 12.75 -8.695 12.75 -9.375 12.75 C-9.36174787 9.64900247 -9.17505196 6.75406607 -8.375 3.75 C-3.91554054 -0.41216216 -3.91554054 -0.41216216 0 0 Z " fill="#EF673E" transform="translate(310.375,172.25)"/>
<path d="M0 0 C11.3825696 0.56912848 21.77395804 5.4044438 31 12 C31.33 12.66 31.66 13.32 32 14 C23.61604278 11.63529412 23.61604278 11.63529412 21 8.9375 C18.29696624 6.31893605 15.75526975 6.05027633 12.12109375 5.39453125 C10 5 10 5 7 4 C7 3.34 7 2.68 7 2 C4.69 2 2.38 2 0 2 C0 1.34 0 0.68 0 0 Z " fill="#E88E71" transform="translate(117,59)"/>
<path d="M0 0 C1.83111328 -0.03867188 1.83111328 -0.03867188 3.69921875 -0.078125 C7.5723847 0.27360034 9.97888528 1.30411123 13.3125 3.25 C11.3125 4.25 11.3125 4.25 8.875 3.8125 C0.07925386 2.42369798 -7.33942049 3.24406839 -15.6875 6.25 C-16.6775 6.58 -17.6675 6.91 -18.6875 7.25 C-18.6875 6.26 -18.6875 5.27 -18.6875 4.25 C-15.77243545 2.30662363 -14.85778308 1.97325333 -11.5625 1.6875 C-7.27382839 1.20329514 -4.57015936 0.05730607 0 0 Z " fill="#E6896D" transform="translate(105.6875,81.75)"/>
<path d="M0 0 C0.99 0.33 1.98 0.66 3 1 C2.26277589 2.92161695 1.50965305 4.8371387 0.75 6.75 C0.33234375 7.81734375 -0.0853125 8.8846875 -0.515625 9.984375 C-1.99892631 12.99781871 -3.49731681 14.79678317 -6 17 C-6.86380259 15.71475739 -7.71580369 14.42157581 -8.5625 13.125 C-9.03816406 12.40570313 -9.51382812 11.68640625 -10.00390625 10.9453125 C-10.49697266 9.98238281 -10.49697266 9.98238281 -11 9 C-10.67 8.34 -10.34 7.68 -10 7 C-8 9 -8 9 -8 12 C-6.68 12.33 -5.36 12.66 -4 13 C-4.33 10.69 -4.66 8.38 -5 6 C-4.01 5.34 -3.02 4.68 -2 4 C-1.34 4.33 -0.68 4.66 0 5 C-0.2784375 4.0409375 -0.2784375 4.0409375 -0.5625 3.0625 C-0.706875 2.381875 -0.85125 1.70125 -1 1 C-0.67 0.67 -0.34 0.34 0 0 Z " fill="#EA8162" transform="translate(317,190)"/>
<path d="M0 0 C1.5 1 1.5 1 3 3 C3.39937228 6.09513519 3.63376466 8.0385906 3 11 C0.625 14 0.625 14 -2 16 C-2.66 16 -3.32 16 -4 16 C-4 16.66 -4 17.32 -4 18 C-4.66 18 -5.32 18 -6 18 C-6.75 15.8125 -6.75 15.8125 -7 13 C-5.0625 10.1875 -5.0625 10.1875 -3 8 C-2.67 8.66 -2.34 9.32 -2 10 C-1.67 9.34 -1.34 8.68 -1 8 C-0.34 8 0.32 8 1 8 C0.67 5.36 0.34 2.72 0 0 Z " fill="#F07855" transform="translate(149,73)"/>
<path d="M0 0 C0.9075 0.86625 1.815 1.7325 2.75 2.625 C7.58395769 6.81110769 13.23583661 9.33088001 19 12 C16 14 16 14 13.1875 13.4609375 C12.135625 13.10257813 11.08375 12.74421875 10 12.375 C8.948125 12.03210938 7.89625 11.68921875 6.8125 11.3359375 C3.79187481 9.90114054 2.63537848 8.87695345 1 6 C0.3125 2.75 0.3125 2.75 0 0 Z " fill="#EA8564" transform="translate(75,139)"/>
<path d="M0 0 C0.33 0 0.66 0 1 0 C1 7.92 1 15.84 1 24 C1.33 24 1.66 24 2 24 C2.33 26.64 2.66 29.28 3 32 C2.01 32.495 2.01 32.495 1 33 C-3.13478457 21.69825551 -2.15728966 11.55690892 0 0 Z " fill="#E7A78C" transform="translate(43,101)"/>
<path d="M0 0 C1.32 0.33 2.64 0.66 4 1 C4 1.99 4 2.98 4 4 C3.34 4 2.68 4 2 4 C1.01 7.3 0.02 10.6 -1 14 C-1.66 13.01 -2.32 12.02 -3 11 C-3.66 12.32 -4.32 13.64 -5 15 C-4.58997722 4.44191344 -4.58997722 4.44191344 0 0 Z " fill="#E99077" transform="translate(40,184)"/>
<path d="M0 0 C8.91 0 17.82 0 27 0 C27 0.33 27 0.66 27 1 C26.10796875 1.06058594 25.2159375 1.12117187 24.296875 1.18359375 C22.54117188 1.30927734 22.54117188 1.30927734 20.75 1.4375 C19.58984375 1.51871094 18.4296875 1.59992188 17.234375 1.68359375 C14.17574419 1.89702065 14.17574419 1.89702065 11.96875 2.53125 C9.20919143 3.18828775 6.5808905 3.09327055 3.75 3.0625 C2.67234375 3.05347656 1.5946875 3.04445312 0.484375 3.03515625 C-0.33546875 3.02355469 -1.1553125 3.01195312 -2 3 C-1.34 2.67 -0.68 2.34 0 2 C0 1.34 0 0.68 0 0 Z " fill="#E06E44" transform="translate(183,205)"/>
<path d="M0 0 C0.33 0.66 0.66 1.32 1 2 C-0.65 2.66 -2.3 3.32 -4 4 C-4.33 6.31 -4.66 8.62 -5 11 C-6.65 10.67 -8.3 10.34 -10 10 C-11.125 5.25 -11.125 5.25 -10 3 C-7.71484375 2.1484375 -7.71484375 2.1484375 -4.9375 1.375 C-4.01839844 1.11460937 -3.09929687 0.85421875 -2.15234375 0.5859375 C-1.44207031 0.39257812 -0.73179687 0.19921875 0 0 Z " fill="#ED6740" transform="translate(315,187)"/>
<path d="M0 0 C-1 3 -1 3 -2.75 4.1875 C-5.29960574 5.10819096 -7.30923081 5.14948718 -10 5 C-10 5.66 -10 6.32 -10 7 C-18.25 7 -26.5 7 -35 7 C-34.67 6.34 -34.34 5.68 -34 5 C-32.74445313 5.03480469 -31.48890625 5.06960937 -30.1953125 5.10546875 C-19.60386372 5.31061462 -9.14223224 0 0 0 Z " fill="#EA9B84" transform="translate(129,147)"/>
<path d="M0 0 C0.66 0 1.32 0 2 0 C2.2475 0.94875 2.495 1.8975 2.75 2.875 C3.6857077 6.08693191 3.6857077 6.08693191 6.125 7.375 C6.74375 7.58125 7.3625 7.7875 8 8 C5.36 8.33 2.72 8.66 0 9 C-0.33 9.99 -0.66 10.98 -1 12 C-2.5 10.8125 -2.5 10.8125 -4 9 C-4.1875 6.3125 -4.1875 6.3125 -4 4 C-3.34 4 -2.68 4 -2 4 C-1.67 4.66 -1.34 5.32 -1 6 C-0.67 4.02 -0.34 2.04 0 0 Z " fill="#E78263" transform="translate(305,181)"/>
<path d="M0 0 C0.74507813 0.00902344 1.49015625 0.01804688 2.2578125 0.02734375 C4.08868059 0.05081642 5.91938238 0.08668475 7.75 0.125 C7.42 1.115 7.09 2.105 6.75 3.125 C0.31688704 3.22007063 -5.90758005 3.27816726 -12.25 2.125 C-8.4084024 -0.44280471 -4.4360825 -0.10188882 0 0 Z " fill="#DE6D45" transform="translate(262.25,207.875)"/>
<path d="M0 0 C0.33 0 0.66 0 1 0 C1 1.98 1 3.96 1 6 C1.66 6 2.32 6 3 6 C4.38938077 7.96147874 5.7260411 9.96166576 7 12 C6.67 12.66 6.34 13.32 6 14 C0.125 11.25 0.125 11.25 -1 9 C-0.91348369 7.45386986 -0.75997364 5.91090613 -0.5625 4.375 C-0.46066406 3.55773437 -0.35882813 2.74046875 -0.25390625 1.8984375 C-0.17011719 1.27195313 -0.08632813 0.64546875 0 0 Z " fill="#E77853" transform="translate(37,192)"/>
<path d="M0 0 C0 0.99 0 1.98 0 3 C0.99 3.33 1.98 3.66 3 4 C1.04486839 4.696553 -0.91422476 5.38199565 -2.875 6.0625 C-3.96554688 6.44535156 -5.05609375 6.82820312 -6.1796875 7.22265625 C-9 8 -9 8 -11 7 C-9.68 6.67 -8.36 6.34 -7 6 C-7 5.34 -7 4.68 -7 4 C-7.99 3.67 -8.98 3.34 -10 3 C-8.70990357 2.49596232 -7.41786211 1.99690074 -6.125 1.5 C-5.04605469 1.08234375 -5.04605469 1.08234375 -3.9453125 0.65625 C-2 0 -2 0 0 0 Z " fill="#E98C73" transform="translate(64,173)"/>
<path d="M0 0 C2.4375 0.375 2.4375 0.375 5 1 C6.36421031 3.72842061 5.87807211 5.60953318 5.5625 8.625 C5.46066406 9.62789062 5.35882813 10.63078125 5.25390625 11.6640625 C5.17011719 12.43492187 5.08632813 13.20578125 5 14 C4.67 14 4.34 14 4 14 C4 11.69 4 9.38 4 7 C3.34 7 2.68 7 2 7 C1.67 6.01 1.34 5.02 1 4 C0.34 3.34 -0.32 2.68 -1 2 C-0.67 1.34 -0.34 0.68 0 0 Z " fill="#F1663E" transform="translate(313,172)"/>
<path d="M0 0 C7.26 0.33 14.52 0.66 22 1 C22 1.33 22 1.66 22 2 C21.10539062 2.06058594 20.21078125 2.12117187 19.2890625 2.18359375 C12.17850052 2.67632992 5.08640578 3.23257818 -2 4 C-0.68 3.67 0.64 3.34 2 3 C2 2.34 2 1.68 2 1 C1.34 0.67 0.68 0.34 0 0 Z " fill="#F1A48A" transform="translate(246,206)"/>
<path d="M0 0 C4.95 1.98 4.95 1.98 10 4 C8.68 4.99 7.36 5.98 6 7 C1.79985584 6.2631326 -1.33079594 5.45426407 -4 2 C-2.68 2.33 -1.36 2.66 0 3 C0 2.01 0 1.02 0 0 Z " fill="#E8987D" transform="translate(43,202)"/>
<path d="M0 0 C6.20970773 -0.33266291 10.28264895 0.54970669 16 3 C16 3.33 16 3.66 16 4 C11.05 4 6.1 4 1 4 C1 3.67 1 3.34 1 3 C2.65 2.67 4.3 2.34 6 2 C3.03 1.505 3.03 1.505 0 1 C0 0.67 0 0.34 0 0 Z " fill="#EA9779" transform="translate(134,210)"/>
<path d="M0 0 C1.32 0.33 2.64 0.66 4 1 C3.01 1 2.02 1 1 1 C1 2.65 1 4.3 1 6 C-3.40914783 7.10228696 -7.48382401 7.07654536 -12 7 C-12 6.67 -12 6.34 -12 6 C-10.35 6 -8.7 6 -7 6 C-6.67 5.01 -6.34 4.02 -6 3 C-3.03 3.495 -3.03 3.495 0 4 C0 2.68 0 1.36 0 0 Z " fill="#EC967E" transform="translate(293,207)"/>
<path d="M0 0 C0.515625 0.37125 1.03125 0.7425 1.5625 1.125 C1.2325 2.115 0.9025 3.105 0.5625 4.125 C-3.0675 3.795 -6.6975 3.465 -10.4375 3.125 C-9.4375 1.125 -9.4375 1.125 -6.125 -0.125 C-2.4375 -0.875 -2.4375 -0.875 0 0 Z " fill="#E97D59" transform="translate(91.4375,168.875)"/>
<path d="M0 0 C0.66 0.33 1.32 0.66 2 1 C0.02851185 5.56555151 -1.86422673 8.20835304 -6 11 C-6.99 11.33 -7.98 11.66 -9 12 C-7.55575365 8.76138697 -5.74227753 6.38030837 -3.375 3.75 C-2.74335937 3.04359375 -2.11171875 2.3371875 -1.4609375 1.609375 C-0.97882812 1.07828125 -0.49671875 0.5471875 0 0 Z " fill="#E78569" transform="translate(62,73)"/>
<path d="M0 0 C0.99 0 1.98 0 3 0 C5 3 5 3 5 6 C1.42355152 7.2380014 -1.33694766 6.74926071 -5 6 C-5 5.67 -5 5.34 -5 5 C-3.35 5 -1.7 5 0 5 C0 3.35 0 1.7 0 0 Z " fill="#EA6842" transform="translate(294,208)"/>
<path d="M0 0 C5.75 1.875 5.75 1.875 8 3 C8 3.66 8 4.32 8 5 C8.66 5.33 9.32 5.66 10 6 C9.67 6.99 9.34 7.98 9 9 C5.51127585 7.83709195 4.90023136 6.86032391 2.8125 3.9375 C2.28269531 3.20402344 1.75289062 2.47054687 1.20703125 1.71484375 C0.80871094 1.14894531 0.41039062 0.58304688 0 0 Z " fill="#E9866A" transform="translate(55,152)"/>
<path d="M0 0 C1.5 1 1.5 1 3 3 C3.63772451 7.43634442 3.51756835 10.22364747 1 14 C0.34 14 -0.32 14 -1 14 C-2.125 10.25 -2.125 10.25 -1 8 C-0.34 8 0.32 8 1 8 C0.67 5.36 0.34 2.72 0 0 Z " fill="#E68565" transform="translate(149,73)"/>
<path d="M0 0 C3 3.625 3 3.625 3 7 C3.66 7.33 4.32 7.66 5 8 C4.34 8.66 3.68 9.32 3 10 C2.67 8.68 2.34 7.36 2 6 C0.02 6 -1.96 6 -4 6 C-2.84826645 3.53199953 -1.95216435 1.95216435 0 0 Z " fill="#EE8C68" transform="translate(312,172)"/>
<path d="M0 0 C0.66 0 1.32 0 2 0 C1.731875 0.66 1.46375 1.32 1.1875 2 C-0.25705047 5.64939067 -1.62871178 9.32245433 -3 13 C-3.33 13 -3.66 13 -4 13 C-5.23076923 6.6 -5.23076923 6.6 -4.0625 3.5625 C-3.711875 3.046875 -3.36125 2.53125 -3 2 C-2.01 2 -1.02 2 0 2 C0 1.34 0 0.68 0 0 Z " fill="#E88969" transform="translate(72,99)"/>
<path d="M0 0 C2 1.3125 2 1.3125 4 4 C4.46970575 7.69756739 4.50438177 11.30511027 4 15 C3.34 15.66 2.68 16.32 2 17 C2.02320313 16.35933594 2.04640625 15.71867188 2.0703125 15.05859375 C2.18440863 9.59012904 1.79791904 5.16901723 0 0 Z " fill="#E69575" transform="translate(318,173)"/>
<path d="M0 0 C2.97 0.495 2.97 0.495 6 1 C5.67 1.66 5.34 2.32 5 3 C5.66 3.33 6.32 3.66 7 4 C7.33 3.34 7.66 2.68 8 2 C7.42655063 4.86724686 7.1385485 5.8614515 5 8 C2.525 4.04 2.525 4.04 0 0 Z " fill="#ED876A" transform="translate(49,144)"/>
<path d="M0 0 C2.31 0.33 4.62 0.66 7 1 C6 2.5 6 2.5 4 4 C1.28153765 4.27345479 -1.25677199 4.13491285 -4 4 C-4.33 3.34 -4.66 2.68 -5 2 C-3.02 2 -1.04 2 1 2 C0.67 1.34 0.34 0.68 0 0 Z " fill="#EA9679" transform="translate(136,90)"/>
<path d="M0 0 C0.90105469 0.01804687 1.80210938 0.03609375 2.73046875 0.0546875 C3.41753906 0.07789062 4.10460937 0.10109375 4.8125 0.125 C4.8125 0.455 4.8125 0.785 4.8125 1.125 C4.12542969 1.32996094 3.43835938 1.53492187 2.73046875 1.74609375 C1.82941406 2.01550781 0.92835937 2.28492187 0 2.5625 C-1.33998047 2.96275391 -1.33998047 2.96275391 -2.70703125 3.37109375 C-4.54223055 3.92887873 -6.36783726 4.51844575 -8.1875 5.125 C-8.1875 4.135 -8.1875 3.145 -8.1875 2.125 C-4.87379 -0.08414 -3.8428979 -0.09981553 0 0 Z " fill="#E89577" transform="translate(95.1875,83.875)"/>
<path d="M0 0 C0.66 0.33 1.32 0.66 2 1 C2 1.66 2 2.32 2 3 C-1.96 2.67 -5.92 2.34 -10 2 C-5.98936074 -0.00531963 -4.32816129 -0.28227139 0 0 Z " fill="#E67F5D" transform="translate(260,208)"/>
<path d="M0 0 C1.485 0.99 1.485 0.99 3 2 C3 2.99 3 3.98 3 5 C4.65 5.33 6.3 5.66 8 6 C7.34 7.32 6.68 8.64 6 10 C2.51668565 6.98112756 1.20842856 4.43090471 0 0 Z " fill="#E69984" transform="translate(306,197)"/>
<path d="M0 0 C1.40182371 2.61673759 2.60495559 5.0371669 3 8 C2.34 8.66 1.68 9.32 1 10 C0.01 9.34 -0.98 8.68 -2 8 C-1.34 5.36 -0.68 2.72 0 0 Z " fill="#EA8464" transform="translate(68,125)"/>
<path d="M0 0 C2.64 0.33 5.28 0.66 8 1 C8.33 2.65 8.66 4.3 9 6 C5.06326356 4.68775452 2.77280706 3.08089673 0 0 Z " fill="#F1947A" transform="translate(64,161)"/>
<path d="M0 0 C1.134375 0.020625 2.26875 0.04125 3.4375 0.0625 C1.07457344 2.58838702 -0.22712511 3.95070837 -3.5625 5.0625 C-4.125 3.125 -4.125 3.125 -4.5625 1.0625 C-3.5625 0.0625 -3.5625 0.0625 0 0 Z " fill="#F08E76" transform="translate(82.5625,88.9375)"/>
<path d="M0 0 C2.475 0.495 2.475 0.495 5 1 C5.33 2.32 5.66 3.64 6 5 C4.35 4.67 2.7 4.34 1 4 C0.67 2.68 0.34 1.36 0 0 Z " fill="#ED734E" transform="translate(304,193)"/>
<path d="M0 0 C0.99 0.33 1.98 0.66 3 1 C3.33 3.64 3.66 6.28 4 9 C3.01 9.495 3.01 9.495 2 10 C0.68373308 6.38026598 0 3.90432869 0 0 Z " fill="#E88F6E" transform="translate(42,124)"/>
<path d="M0 0 C0.721875 0.144375 1.44375 0.28875 2.1875 0.4375 C3.5796875 0.7159375 3.5796875 0.7159375 5 1 C6.66666667 1.33333333 8.33333333 1.66666667 10 2 C10.33 3.32 10.66 4.64 11 6 C10.484375 5.731875 9.96875 5.46375 9.4375 5.1875 C6.33598585 3.67650593 3.17737194 2.34427274 0 1 C0 0.67 0 0.34 0 0 Z " fill="#EB997D" transform="translate(120,86)"/>
<path d="M0 0 C-0.99 0.33 -1.98 0.66 -3 1 C-3 1.66 -3 2.32 -3 3 C-5.31 3.33 -7.62 3.66 -10 4 C-7.39928297 0.98864344 -3.94054294 -1.97027147 0 0 Z " fill="#E9856D" transform="translate(82,64)"/>
<path d="M0 0 C2.31 0 4.62 0 7 0 C6.67 0.99 6.34 1.98 6 3 C4.02 3 2.04 3 0 3 C0 2.01 0 1.02 0 0 Z " fill="#DA6E43" transform="translate(280,210)"/>
<path d="M0 0 C1.98 1.65 3.96 3.3 6 5 C4.1875 5.625 4.1875 5.625 2 6 C1.01 5.34 0.02 4.68 -1 4 C-0.67 2.68 -0.34 1.36 0 0 Z " fill="#595959" transform="translate(201,143)"/>
<path d="M0 0 C0.33 1.32 0.66 2.64 1 4 C-0.96466413 5.06775224 -2.96855359 6.06553465 -5 7 C-5.66 6.67 -6.32 6.34 -7 6 C-4.69 4.02 -2.38 2.04 0 0 Z " fill="#E89376" transform="translate(136,140)"/>
<path d="M0 0 C2.125 0.375 2.125 0.375 4 1 C4 1.99 4 2.98 4 4 C3.34 4 2.68 4 2 4 C1.67 4.66 1.34 5.32 1 6 C0.01 4.68 -0.98 3.36 -2 2 C-1.34 1.34 -0.68 0.68 0 0 Z " fill="#ECA384" transform="translate(40,184)"/>
</svg>
